PathFileType	4	(X/Y/Z)	Patient4_TMGait_0pt6_01_right_01.trc.trc
DataRate	CameraRate	NumFrames	NumMarkers	Units	OrigDataRate	OrigDataStartFrame	OrigNumFrames
82.352941176471	82.352941176471	4	33	mm	82.352941176471	1	       141
Frame#	Time	Sacral			L.Shoulder			Chest			R.Shoulder			Neck			R.ASIS			L.ASIS			R.Thigh.Superior			R.Thigh.Lateral			R.Thigh.Inferior			R.Patella			L.Thigh.Superior			L.Thigh.Lateral			L.Thigh.Inferior			L.Patella			L.Shank.Superior			L.Shank.Lateral			L.Shank.Inferior			R.Shank.Superior			R.Shank.Lateral			R.Shank.Inferior			R.Heel			R.Midfoot.Superior			R.Midfoot.Lateral			R.Toe			L.Heel			L.Midfoot.Lateral			L.Midfoot.Superior			L.Toe			L.Elbow			L.Wrist			R.Elbow			R.Wrist			
		X1	Y1	Z1	X2	Y2	Z2	X3	Y3	Z3	X4	Y4	Z4	X5	Y5	Z5	X6	Y6	Z6	X7	Y7	Z7	X8	Y8	Z8	X9	Y9	Z9	X10	Y10	Z10	X11	Y11	Z11	X12	Y12	Z12	X13	Y13	Z13	X14	Y14	Z14	X15	Y15	Z15	X16	Y16	Z16	X17	Y17	Z17	X18	Y18	Z18	X19	Y19	Z19	X20	Y20	Z20	X21	Y21	Z21	X22	Y22	Z22	X23	Y23	Z23	X24	Y24	Z24	X25	Y25	Z25	X26	Y26	Z26	X27	Y27	Z27	X28	Y28	Z28	X29	Y29	Z29	X30	Y30	Z30	X31	Y31	Z31	X32	Y32	Z32	X33	Y33	Z33	

1	0.590000000000	581.190004849505	1007.932288477844	427.783841934114	753.579514794105	1439.434523609234	246.532312005323	855.420579350596	1370.129392235730	407.718437961006	771.103304741072	1440.569402845449	581.703208038823	737.954350983450	1499.044131392543	401.222816326808	808.425883607126	946.791113418532	543.206137609181	799.454665974528	963.185519775433	264.325184127776	894.520402059719	781.460272738140	509.903792800095	860.027773601567	657.970633104228	580.814898743561	949.941190073559	622.897120932973	500.042166147703	973.151086991803	509.058924976322	519.681402805217	841.704171532331	750.928652295140	300.230424742848	750.888750602524	637.697850839938	243.485659998569	830.826670418106	558.664348945044	309.877358365027	828.440645446822	490.421652800140	321.473148790258	803.585459201031	418.611493424663	312.982181364529	715.652643829076	302.477147078852	264.507260369731	767.028303518629	193.732917881973	338.505937007583	898.593290095728	431.544164176275	523.884610395419	778.480856169844	386.153244514220	583.129596697623	766.257036354115	279.256143355707	529.760119358951	564.985250993965	209.372490401888	501.878890573755	737.899148122361	160.192557301016	536.456791732453	629.503861023154	151.745723026816	572.068334234577	810.851890751230	52.749665697506	559.933103012656	640.387802400294	37.456983953569	384.593093076067	710.938758075908	34.281540816046	300.417429407759	794.326577787445	96.491557822278	323.851212183963	921.694932021759	47.148704699562	289.782146228594	785.005389201714	1092.250671951725	111.422366996031	978.263304594967	914.619106017464	114.337509999624	703.488297968465	1095.708422235310	690.523871276326	779.905032296084	844.523344497085	686.110909442773	
2	0.602142857143	580.501592016017	1008.281779049645	426.546307287911	755.017250836770	1440.135273927263	246.743843298187	855.417662053554	1370.206362145011	408.509759461894	769.888400933336	1440.267994618484	581.973210982160	737.963543814300	1499.383253605992	401.354683263830	807.160388332418	947.474373539127	543.200127072872	799.587011773929	964.488861586759	265.135476407288	894.447290089951	783.784690826527	509.532845387853	862.022193421823	660.204921816112	581.085242971348	951.362374632665	625.718386844529	499.460331730103	976.448238449092	513.470068147659	519.579574489376	839.111615400692	750.095684291666	300.892907827524	747.275661419179	637.657710795420	243.114313642113	825.744421188598	557.803974523759	309.840290511548	822.343082207307	489.635353328275	321.560480860918	797.419592350949	418.125008858389	312.923574575460	709.119506869542	302.400914997681	264.367497877867	759.786346730857	193.491312205752	338.530113262611	905.609693173265	433.765807429532	524.317872803187	788.623888849094	382.499417835054	583.933324829739	782.017892746474	275.272434232210	530.808187026432	585.412531599074	195.015198036745	503.215699967910	759.900811416299	155.404933724948	537.977288842169	652.581637911304	141.439457474638	573.756476296554	838.166073170566	52.449378709946	562.023015615816	632.630515867798	37.466746835834	384.625994099833	703.214755291043	34.272396718805	300.448709565776	786.639647906855	96.423682578639	323.923491434833	914.001729841689	46.996525928393	289.813220868365	789.089475387445	1094.088852275144	110.371520385409	990.573115536831	927.787060170586	114.633502686012	695.774454475961	1096.520619653721	688.505131911010	756.099675937734	842.732873164412	686.050763857898	
3	0.614285714286	579.824672295469	1008.598831511254	425.333157340596	756.445821127172	1440.788513412997	246.968910445898	855.426309141086	1370.247705777077	409.304516357995	768.708190140377	1439.952097989784	582.250968867867	737.987177915844	1499.688865882155	401.496002665158	805.917047898834	948.102644585285	543.200915264886	799.691124622170	965.650080318797	265.879708109255	894.320770939594	785.971949769994	509.194705988933	863.827434930581	662.298749345532	581.370935229931	952.612067818829	628.357120877789	498.958269829699	979.530696250753	517.736818893534	519.557043045891	836.567470364941	749.252676387089	301.524976226692	743.712755547902	637.612143907325	242.739438829013	820.725625419009	556.946744279086	309.792660738520	816.335129238856	488.861116571827	321.624095330434	791.334205639936	417.639170871322	312.855886263688	702.664959079909	302.320270777474	264.220831332607	752.627017274722	193.246141833142	338.549588732844	912.450809199535	435.889343998053	524.796220179014	798.695668152850	378.748629277477	584.791905686177	797.739222539078	271.265993572594	531.889971010587	605.973518796954	180.670653973822	504.582845007781	781.914418350984	150.647416116012	539.514815959214	675.739296908646	131.168871742089	575.472715601407	865.437711432089	52.239334215502	564.115880486824	624.959065994620	37.474313572534	384.653214218667	695.569662377844	34.259841699031	300.479287821003	779.032598076728	96.355528678841	323.993706009993	906.389032967703	46.841100616008	289.843401576434	793.125362644939	1095.865729334533	109.367671065114	1002.611727348026	940.845691148565	114.965825127012	688.089738255782	1097.383838846653	686.580505096932	732.790494226431	841.206923803484	685.994384283757	
4	0.626428571429	579.184399305702	1008.847655178444	424.171971707244	757.863317471727	1441.345799564160	247.227408517368	855.462697040914	1370.218344501349	410.114944271785	767.599448573989	1439.608741947590	582.550562173156	738.044370388623	1499.924842580891	401.664233431435	804.725380746673	948.621171051663	543.228630749926	799.757625031568	966.553349579268	266.521390784077	894.066108230951	787.854160504590	508.943627570688	865.218376330118	664.095815895551	581.707818056249	953.483961139612	630.606770028999	498.627636837351	982.144050189568	521.706156097509	519.682683584022	834.115658565182	748.385367808281	302.106910988954	740.234864991853	637.553114901745	242.365537958966	815.810421011030	556.090500061951	309.732583857081	810.474634379947	488.103002559188	321.650157632290	785.375688319580	417.150486145473	312.776773701256	696.328240217586	302.233325497167	264.065331111316	745.586293150333	192.992615170051	338.561713362051	918.925002449225	437.830954391887	525.367710349218	808.650260755022	374.825559186489	585.764164234482	813.423763249869	267.269464272621	533.040461335768	626.895441832965	166.414951974448	506.011465454949	804.035108629065	146.011556787372	541.077380391504	699.156821591618	121.026865518154	577.230669465172	892.704157679551	52.282012830303	566.184665801520	617.403032837447	37.481736898521	384.669447783455	688.027539562124	34.243736187736	300.508002739735	771.531997543331	96.286690617743	324.060114898405	898.882175700145	46.677023354891	289.871901754535	797.087100490982	1097.523208269589	108.463689673741	1014.137370829583	953.711840768220	115.387735157985	680.452427250565	1098.366255343637	684.843638587122	710.416043387378	840.194255814538	685.952776000931	
